<?xml version="1.0" standalone="no"?>
<!DOCTYPE svg PUBLIC "-//W3C//DTD SVG 20010904//EN"
 "http://www.w3.org/TR/2001/REC-SVG-20010904/DTD/svg10.dtd">
<svg version="1.0" xmlns="http://www.w3.org/2000/svg"
 width="257.000000pt" height="257.000000pt" viewBox="0 0 257.000000 257.000000"
 preserveAspectRatio="xMidYMid meet">
<metadata>
Created by potrace 1.11, written by Peter Selinger 2001-2013
</metadata>
<g transform="translate(0.000000,257.000000) scale(0.100000,-0.100000)"
fill="#000000" stroke="none">
<path d="M295 2560 c-4 -6 -10 -8 -15 -5 -5 3 -11 1 -15 -5 -3 -5 -17 -10 -31
-10 -13 0 -24 -4 -24 -10 0 -5 -6 -10 -14 -10 -8 0 -17 -6 -19 -12 -4 -10 -6
-10 -6 1 -1 16 -79 -75 -93 -109 -11 -28 -18 -52 -25 -92 -3 -17 -10 -25 -17
-21 -6 4 -5 -1 3 -10 11 -14 11 -17 0 -17 -10 0 -10 -3 -2 -11 8 -8 8 -20 3
-35 -6 -15 -5 -26 1 -30 6 -4 5 -11 -3 -22 -10 -12 -10 -14 0 -8 8 5 12 -2 12
-24 0 -22 4 -29 13 -24 8 5 8 2 -2 -9 -7 -9 -9 -17 -4 -17 5 0 10 -6 10 -12 1
-31 13 -71 25 -86 11 -13 11 -14 -2 -7 -12 7 -13 6 -3 -6 6 -8 11 -17 12 -22
1 -28 15 -78 22 -83 5 -3 9 -14 9 -25 0 -10 4 -19 8 -19 4 0 8 -8 9 -18 2 -26
45 -122 55 -122 4 0 8 -9 8 -21 0 -11 5 -17 10 -14 5 3 10 -2 11 -12 0 -11 3
-13 6 -5 3 7 0 19 -6 26 -6 7 -8 22 -4 31 4 12 3 16 -4 12 -9 -6 -15 4 -27 43
-1 3 -5 11 -9 18 -5 6 -6 12 -3 12 3 0 -2 19 -10 43 -17 46 -25 76 -26 95 -1
6 -6 12 -12 12 -6 0 -4 5 4 10 10 6 11 10 3 10 -7 0 -13 10 -13 23 0 13 -6 29
-13 36 -9 11 -9 13 0 7 7 -4 13 -2 13 3 0 6 -4 11 -8 11 -7 0 -9 13 -16 98 -2
18 -6 35 -9 39 -4 3 -2 12 4 20 9 10 8 13 0 13 -7 0 -9 5 -5 12 4 6 9 32 10
56 2 25 8 50 14 56 5 5 10 18 10 28 0 10 5 18 12 18 6 0 9 3 5 6 -7 7 35 50
46 47 4 -2 7 2 7 8 0 6 7 8 16 5 8 -3 12 -2 9 4 -7 12 80 38 123 36 17 -1 32
1 32 5 0 3 12 4 28 2 15 -2 42 -5 60 -5 17 0 32 -4 32 -7 0 -4 14 -5 31 -3 22
3 30 1 25 -7 -4 -6 -3 -11 3 -11 5 0 12 6 14 13 4 10 6 10 6 0 1 -7 12 -13 26
-13 14 0 25 -4 25 -10 0 -5 3 -9 8 -8 16 4 72 -14 72 -24 0 -6 6 -8 13 -5 7 3
24 -4 38 -14 13 -10 30 -19 36 -19 7 0 35 -13 61 -30 27 -16 54 -30 61 -30 6
0 11 -4 11 -8 0 -9 46 -35 65 -37 6 0 8 -7 7 -15 -2 -8 0 -12 4 -7 4 4 16 0
26 -10 10 -9 18 -12 18 -8 0 4 9 -2 19 -14 11 -12 21 -21 24 -19 2 2 19 -8 37
-22 18 -14 37 -24 42 -23 4 2 8 -2 8 -7 0 -6 7 -10 16 -10 8 0 12 -4 9 -10 -3
-5 1 -10 9 -10 8 0 22 -10 30 -22 9 -12 16 -19 16 -15 0 8 15 -3 55 -41 14
-13 25 -20 25 -16 0 4 14 -7 30 -24 17 -18 30 -30 30 -27 0 7 38 -29 205 -195
197 -196 225 -227 225 -240 0 -6 5 -8 10 -5 9 5 14 -7 11 -27 0 -4 8 -10 19
-13 11 -4 20 -11 20 -16 0 -9 27 -44 63 -81 10 -10 27 -37 38 -58 12 -22 25
-40 31 -40 5 0 6 -5 3 -10 -3 -6 1 -13 9 -16 9 -3 14 -10 11 -14 -3 -5 3 -13
12 -19 10 -6 14 -11 10 -11 -5 0 -1 -7 7 -16 9 -8 13 -20 10 -26 -4 -6 -2 -8
4 -4 6 3 14 -4 18 -16 4 -13 9 -25 13 -28 8 -7 55 -102 57 -118 1 -7 9 -23 17
-35 12 -19 29 -70 33 -102 1 -12 22 -63 31 -78 4 -6 1 -7 -6 -2 -8 5 -7 -3 3
-23 9 -17 13 -37 10 -45 -3 -8 -1 -18 4 -21 5 -3 7 -17 4 -31 -2 -14 2 -33 9
-42 10 -12 10 -14 1 -9 -13 8 -13 -19 1 -41 4 -6 4 -14 -1 -17 -4 -2 -9 -20
-10 -38 -2 -32 -6 -57 -14 -87 -3 -15 -30 -45 -67 -76 -15 -12 -21 -14 -16 -5
8 13 6 13 -8 1 -9 -7 -24 -11 -32 -7 -8 3 -15 1 -15 -5 0 -6 -4 -8 -8 -5 -4 3
-38 6 -75 8 -37 1 -67 5 -67 8 0 3 -14 7 -32 8 -18 2 -35 6 -38 10 -3 4 -12 8
-20 10 -8 2 -22 10 -31 18 -12 11 -18 11 -29 1 -9 -8 -11 -8 -6 0 7 12 -29 29
-53 24 -7 -1 -10 2 -6 8 3 6 -1 11 -9 11 -9 0 -16 4 -16 9 0 5 -14 12 -30 16
-17 4 -28 10 -25 15 3 5 -5 12 -17 16 -12 3 -31 15 -42 25 -11 11 -26 19 -33
19 -8 0 -11 5 -8 10 3 6 -1 10 -9 10 -9 0 -16 5 -16 12 0 6 -3 8 -7 5 -3 -4
-16 5 -29 18 -13 14 -26 25 -30 25 -4 0 -18 12 -32 28 -13 15 -21 20 -17 12 5
-8 -2 -4 -15 8 -16 18 -19 27 -11 35 6 6 11 7 11 3 0 -5 7 -3 15 4 8 7 15 10
15 6 0 -3 9 2 19 11 11 9 18 20 15 25 -3 4 -1 8 5 8 5 0 9 14 9 30 -1 17 -3
28 -6 26 -2 -3 -14 6 -27 20 -12 13 -26 24 -30 24 -14 0 -94 41 -101 51 -3 5
-14 9 -25 9 -10 0 -19 5 -19 10 0 6 -9 10 -20 10 -11 0 -20 4 -20 9 0 7 -33
21 -48 20 -1 0 -10 7 -18 16 -9 8 -22 15 -29 15 -10 0 -13 16 -10 70 2 38 7
79 10 91 6 16 4 20 -6 13 -11 -6 -12 -5 -3 7 12 15 19 158 11 210 -6 35 -67
64 -82 39 -3 -6 -11 -8 -16 -5 -5 4 -9 1 -9 -4 0 -6 -7 -11 -15 -11 -8 0 -14
-3 -12 -8 3 -10 -40 -52 -47 -45 -3 4 -6 1 -6 -5 0 -17 -32 -52 -42 -46 -4 3
-8 1 -8 -5 0 -14 -105 -121 -119 -121 -6 0 -11 -4 -11 -9 0 -9 -50 6 -86 26
-12 7 -24 9 -28 6 -3 -3 -6 -1 -6 6 0 7 -4 9 -10 6 -5 -3 -10 -1 -10 6 0 7 -3
9 -6 6 -4 -3 -16 -1 -28 5 -11 7 -24 12 -28 13 -3 0 -10 3 -14 7 -4 5 -15 8
-25 8 -9 0 -36 11 -58 24 -47 26 -91 24 -98 -5 -3 -11 -9 -19 -14 -19 -5 0 -9
-13 -9 -30 0 -16 4 -30 10 -30 5 0 9 -4 7 -8 -3 -10 46 -116 56 -120 4 -2 7
-15 7 -28 0 -14 4 -23 9 -20 5 3 12 -4 16 -17 4 -12 8 -24 10 -27 1 -3 8 -20
14 -37 7 -18 16 -33 20 -33 4 0 7 -9 8 -20 1 -11 -2 -20 -8 -20 -5 0 -9 -4 -9
-10 0 -6 -8 -18 -18 -28 -31 -33 -62 -72 -57 -72 3 0 -4 -9 -15 -20 -11 -11
-20 -25 -20 -30 0 -6 -7 -10 -15 -10 -8 0 -14 -3 -13 -7 4 -15 -34 -63 -45
-56 -6 3 -7 1 -3 -5 4 -7 2 -12 -3 -12 -6 0 -10 -3 -10 -7 3 -19 -2 -34 -9
-29 -4 2 -8 -13 -8 -35 0 -21 1 -37 4 -35 2 2 14 -1 27 -8 23 -12 46 -12 135
-1 25 3 68 8 95 11 28 3 55 10 62 15 7 7 14 6 18 -1 4 -7 11 -7 18 -2 20 15
82 9 82 -8 1 -8 7 -13 15 -12 8 2 12 0 8 -4 -4 -4 1 -19 12 -34 11 -16 20 -33
20 -38 0 -5 7 -13 16 -16 8 -3 13 -10 9 -15 -3 -6 3 -14 12 -20 10 -6 15 -11
11 -11 -5 0 1 -10 12 -23 39 -44 50 -57 50 -62 0 -3 0 -10 0 -16 0 -5 4 -8 9
-5 5 3 11 -3 14 -13 2 -10 18 -25 35 -34 26 -12 32 -13 36 -1 3 8 11 13 18 12
7 -2 12 3 13 10 0 7 7 17 15 22 12 8 12 10 1 10 -9 0 -10 4 -3 13 9 10 16 41
26 111 1 10 11 23 21 28 12 8 16 7 11 0 -4 -7 12 -20 39 -32 25 -12 48 -27 52
-35 3 -8 9 -13 13 -10 4 3 13 -2 20 -10 7 -8 16 -13 20 -10 4 3 13 -2 20 -10
7 -8 19 -15 26 -15 8 0 14 -4 14 -8 0 -4 16 -14 35 -21 19 -7 35 -17 35 -23 0
-6 3 -9 6 -5 4 3 23 -5 43 -18 19 -14 41 -25 48 -25 7 0 13 -5 13 -12 0 -6 3
-8 6 -5 4 3 16 1 28 -5 11 -7 24 -11 29 -10 4 1 7 -2 7 -8 0 -5 9 -10 19 -10
11 0 26 -6 33 -13 7 -6 24 -14 38 -16 14 -1 27 -6 30 -10 4 -6 115 -44 132
-45 3 -1 9 -4 13 -8 4 -4 13 -4 21 -1 8 3 14 1 14 -4 0 -5 12 -10 26 -11 15
-1 33 -7 40 -13 11 -9 14 -8 14 1 0 9 3 10 13 1 8 -6 32 -12 55 -14 23 -2 44
-6 48 -10 4 -3 14 -2 24 3 10 5 20 6 24 3 9 -9 56 -10 56 -2 0 4 13 4 30 -1
17 -5 30 -5 30 0 0 5 9 7 20 5 11 -2 20 0 20 5 0 4 9 6 20 3 12 -3 20 0 20 8
0 7 3 9 6 6 4 -3 16 -1 28 5 11 7 24 11 29 10 4 -1 7 2 7 8 0 5 4 10 10 10 9
0 46 34 83 77 10 11 20 30 22 42 2 12 10 35 18 50 7 15 13 35 11 44 -1 9 1 17
5 17 4 0 7 14 6 30 -1 17 1 30 5 30 10 0 6 163 -4 179 -7 10 -6 12 4 6 10 -6
11 -4 4 6 -10 16 -9 14 -24 89 -10 56 -17 85 -20 85 -1 0 -4 11 -6 25 -2 13
-9 27 -15 31 -6 3 -10 10 -9 15 0 5 -1 16 -3 24 -2 8 -4 19 -5 24 0 5 -6 13
-14 17 -11 7 -10 9 1 9 9 0 6 7 -9 20 -13 11 -18 20 -11 20 8 0 7 5 -3 16 -9
8 -16 22 -16 30 0 8 -5 14 -11 14 -6 0 -9 6 -6 14 3 8 -1 20 -8 26 -8 7 -12
16 -9 21 3 5 0 9 -5 9 -6 0 -11 7 -11 15 0 8 -6 15 -12 15 -10 0 -9 3 1 9 11
7 9 10 -8 16 -12 3 -19 10 -16 14 2 4 -5 18 -16 29 -11 12 -17 22 -13 22 3 0
-4 15 -18 33 -13 17 -30 44 -37 60 -8 15 -18 27 -23 27 -4 0 -8 7 -8 15 0 8
-5 15 -12 15 -6 0 -8 3 -5 6 4 4 -5 20 -18 36 -14 16 -25 36 -25 44 0 9 -4 12
-10 9 -5 -3 -10 1 -10 10 0 8 -7 18 -15 21 -8 4 -15 11 -15 18 0 6 -13 26 -30
44 -16 18 -30 36 -30 40 0 3 -12 16 -26 28 -14 13 -25 25 -25 28 2 19 0 29 -5
23 -7 -7 -74 69 -74 84 0 5 -3 8 -7 7 -11 -3 -73 61 -73 74 0 6 -2 9 -5 6 -7
-7 -65 50 -65 63 0 5 -4 9 -9 9 -4 0 -33 24 -64 54 -31 30 -67 62 -81 71 -14
10 -23 21 -20 26 3 5 2 9 -3 8 -20 -3 -34 2 -28 11 3 6 -1 10 -10 10 -9 0 -13
5 -10 10 3 6 1 10 -5 10 -17 0 -81 46 -73 53 3 4 0 7 -9 7 -8 0 -26 9 -39 20
-12 12 -39 31 -59 42 -19 12 -37 25 -40 29 -3 3 -15 9 -28 13 -12 4 -20 11
-17 16 4 6 -30 21 -44 19 -2 -1 -8 6 -13 15 -5 9 -13 14 -19 11 -5 -4 -9 -1
-9 4 0 6 -7 11 -15 11 -8 0 -15 5 -15 12 0 6 -3 8 -6 5 -4 -4 -15 3 -25 14 -9
11 -20 20 -23 21 -19 0 -46 12 -46 19 0 5 -7 9 -16 9 -8 0 -22 6 -30 14 -7 8
-35 22 -61 32 -27 10 -50 21 -53 25 -4 5 -73 31 -90 34 -11 2 -106 37 -122 46
-23 12 -37 11 -18 -1 9 -6 10 -10 3 -10 -6 0 -15 5 -18 10 -3 6 -17 10 -31 10
-13 0 -24 4 -24 8 0 5 -13 7 -29 4 -16 -2 -32 1 -36 8 -5 8 -10 8 -21 -1 -8
-6 -14 -8 -14 -3 0 14 -111 15 -129 1 -12 -9 -13 -9 -7 1 4 6 3 12 -1 12 -5 0
-15 -6 -22 -12 -11 -10 -13 -10 -7 0 9 14 0 17 -9 2z"/>
</g>
</svg>
